<svg width="92.188" height="75.195" viewBox="0 0 92.188 75.195" xmlns="http://www.w3.org/2000/svg"><g id="svgGroup" stroke-linecap="round" fill-rule="evenodd" font-size="9pt" stroke="#3c87ff" stroke-width="0.25mm" fill="#3c87ff" style="stroke:#3c87ff;stroke-width:0.25mm;fill:#3c87ff"><path d="M 58.691 75.195 L 50 75.195 L 50 0 L 58.691 0 L 58.691 32.715 L 83.496 32.715 L 83.496 0 L 92.188 0 L 92.188 75.195 L 83.496 75.195 L 83.496 41.016 L 58.691 41.016 L 58.691 75.195 Z M 19.922 74.512 L 0 74.512 L 0 0.684 L 16.504 0.684 A 64.503 64.503 0 0 1 19.495 0.757 A 87.8 87.8 0 0 1 22.803 0.977 Q 26.27 1.27 29.541 2.197 A 14.21 14.21 0 0 1 32.616 3.453 A 11.539 11.539 0 0 1 34.961 5.176 Q 40.918 10.547 40.918 18.652 A 20.524 20.524 0 0 1 39.72 25.879 Q 37.079 32.945 28.613 36.035 Q 40.825 39.404 42.505 50.835 A 26.496 26.496 0 0 1 42.773 54.687 A 25.583 25.583 0 0 1 42.341 59.531 Q 41.789 62.393 40.532 64.674 A 14.737 14.737 0 0 1 39.697 66.016 Q 36.621 70.41 31.445 72.461 A 29.158 29.158 0 0 1 23.775 74.311 A 36.157 36.157 0 0 1 19.922 74.512 Z M 8.691 40.234 L 8.691 66.504 L 18.359 66.504 A 29.722 29.722 0 0 0 22.794 66.187 A 23.264 23.264 0 0 0 26.318 65.381 A 11.681 11.681 0 0 0 29.95 63.527 A 10.661 10.661 0 0 0 31.982 61.475 A 9.543 9.543 0 0 0 33.489 58.404 Q 33.878 57.091 34.012 55.522 A 20.191 20.191 0 0 0 34.082 53.809 Q 34.082 48.535 31.836 45.605 Q 29.59 42.676 25.83 41.455 A 24.566 24.566 0 0 0 21.072 40.44 A 31.954 31.954 0 0 0 17.383 40.234 L 8.691 40.234 Z M 8.691 8.691 L 8.691 32.227 L 16.797 32.227 A 27.252 27.252 0 0 0 21.095 31.902 A 21.17 21.17 0 0 0 24.707 31.006 A 11.594 11.594 0 0 0 28.266 29.056 A 10.565 10.565 0 0 0 30.225 26.953 Q 31.899 24.584 32.173 20.849 A 20.7 20.7 0 0 0 32.227 19.336 A 18.232 18.232 0 0 0 32.068 16.845 Q 31.891 15.565 31.516 14.536 A 6.818 6.818 0 0 0 30.225 12.305 A 9.054 9.054 0 0 0 26.221 9.725 A 11.749 11.749 0 0 0 24.902 9.375 A 32.615 32.615 0 0 0 20.951 8.822 A 41.939 41.939 0 0 0 17.578 8.691 L 8.691 8.691 Z" vector-effect="non-scaling-stroke"/></g></svg>